<svg xmlns="http://www.w3.org/2000/svg" viewBox="0 0 512 512" role="img" aria-label="Tigers News">
  <rect width="512" height="512" rx="92" fill="#C41230"/>
  <path d="M72 357c43 55 107 86 184 86 76 0 140-31 184-86l-57-42c-31 37-74 57-127 57s-96-20-127-57l-57 42Z" fill="#191919" opacity=".9"/>
  <circle cx="256" cy="238" r="148" fill="#FFD23F"/>
  <path d="M122 231c28-83 77-124 134-124s106 41 134 124c-36-25-80-39-134-39s-98 14-134 39Z" fill="#191919"/>
  <path d="M151 263c26-27 61-43 105-43s79 16 105 43c-24 60-59 91-105 91s-81-31-105-91Z" fill="#FFF8E6"/>
  <path d="M184 257h144v43h-49v88h-46v-88h-49v-43Z" fill="#C41230"/>
  <path d="M155 147l-54-49 81 18-27 31ZM357 147l54-49-81 18 27 31Z" fill="#FFD23F"/>
  <path d="M191 210c-19 0-35 9-48 27 29-10 57-10 84 1-8-18-20-28-36-28ZM321 210c19 0 35 9 48 27-29-10-57-10-84 1 8-18 20-28 36-28Z" fill="#C41230"/>
</svg>
